<?xml version="1.0" standalone="no"?><!DOCTYPE svg PUBLIC "-//W3C//DTD SVG 1.1//EN" "http://www.w3.org/Graphics/SVG/1.1/DTD/svg11.dtd"><svg t="1525917204730" class="icon" style="" viewBox="0 0 1024 1024" version="1.1" xmlns="http://www.w3.org/2000/svg" p-id="1394" xmlns:xlink="http://www.w3.org/1999/xlink" width="128" height="128"><defs><style type="text/css"></style></defs><path d="M610.56 409.088v0.213333c-3.285333-2.048-9.685333-2.986667-17.92-2.986666v205.44c11.52 0 18.773333-2.56 21.333333-7.04 2.645333-4.437333 4.053333-17.28 4.053334-37.76v-122.282667c0-14.08-0.170667-23.04-1.408-26.88a12.458667 12.458667 0 0 0-5.973334-8.704z" fill="#F5C518" p-id="1395"></path><path d="M956.416 0H69.12C31.658667 2.56 2.56 31.744 0 68.096V954.88c2.56 37.290667 30.378667 65.792 66.346667 68.992 0.64 0.128 1.28 0.128 1.92 0.128h889.386666A73.685333 73.685333 0 0 0 1024 951.04V72.96C1024 34.986667 994.346667 2.986667 956.416 0zM204.458667 666.709333H123.178667V352.426667h81.28v314.282666z m279.04-0.085333H412.586667v-212.053333L384 666.581333H333.312l-29.781333-207.36-0.298667 207.36H232.106667V352.426667h105.301333c3.541333 22.314667 6.826667 44.714667 9.813333 67.157333l11.52 79.786667 18.858667-146.944h105.941333v314.197333z m212.352-93.013333c0 27.946667-1.877333 46.677333-4.437334 56.32-2.645333 9.386667-7.253333 17.066667-13.909333 22.186666-6.4 5.546667-14.506667 9.301333-24.32 11.349334-9.514667 1.92-24.32 3.2-43.52 3.2l-0.170667-0.085334H511.146667V352.426667h60.842666c38.997333 0 61.866667 2.005333 75.52 5.461333 13.866667 3.84 24.533333 9.6 31.786667 17.92 7.04 7.68 11.648 17.237333 13.354667 27.52 2.133333 10.026667 3.242667 30.08 3.242666 59.818667v110.421333z m210.944 20.266666c0 19.2-1.92 32.597333-3.84 42.24-2.56 9.557333-8.32 17.237333-17.28 24.234667-9.642667 7.082667-20.48 10.24-33.28 10.24-9.386667 0-21.333333-2.56-29.013334-5.802667a67.669333 67.669333 0 0 1-21.973333-18.218666l-4.949333 20.053333H723.2V352.426667l-0.853333-0.128h76.8v102.4c6.4-7.466667 13.44-13.226667 21.76-17.066667 8.362667-3.541333 19.882667-5.418667 29.44-5.418667 9.642667-0.128 19.2 1.536 28.16 4.906667 7.253333 2.986667 13.653333 7.893333 18.602666 14.08 3.84 5.333333 6.4 11.52 7.68 17.92 1.28 5.888 1.877333 18.346667 1.877334 37.12v87.637333z" fill="#F5C518" p-id="1396"></path><path d="M814.08 478.08c-5.12 0-8.277333 1.706667-9.6 5.12-1.28 3.413333-2.56 12.373333-2.56 26.624v83.029333c0 13.824 1.28 22.741333 2.56 26.581334 1.706667 3.669333 5.546667 5.973333 9.642667 5.717333 5.12 0 11.605333-2.005333 12.8-5.973333 1.28-4.138667 1.962667-13.653333 1.962666-28.757334l1.28-0.085333v-80.64c0-12.928-0.64-21.674667-2.56-25.728-1.877333-4.266667-8.32-5.973333-13.44-5.973333z" fill="#F5C518" p-id="1397"></path></svg>